# xmcd
#
# Track frame offsets: 
#        150
#        11590
#        23597
#        35827
#        49192
#        61660
#        74295
#        86460
#        99925
#        112725
#        125322
#        139272
#        152147
#        165360
#        178575
#        191930
#        205350
#        217780
#        231077
#        245130
#        258497
#        270665
#        282997
#        296207
#        308812
#
# Disc length: 4290 seconds
#
# Revision: 2
# Processed by: cddbd v1.4PL0 Copyright (c) Steve Scherf et al.
# Submitted via: ExactAudioCopy v0.90b3
#
DISCID=6610c019
DTITLE=Wilf Carter - Montana Slim - Disc 3
DYEAR=1900
DGENRE=Country
TTITLE0=Rescue From The Moose River Gold Mine - 1936
TTITLE1=Keep Smiling Old Pal - 1936
TTITLE2=Don't Let Me Down Old Pal - 1936
TTITLE3=Won't You Be The Same Old Pal - 1936
TTITLE4=The Last Ride Down Lariat Trail - 1936
TTITLE5=Rose Of My Heart - 1936
TTITLE6=Memories Of My Grey Haired Mother In The West - 1936
TTITLE7=Broken Down Cowboy - 1936
TTITLE8=That Tumbledown Shack By The Trail - 1936
TTITLE9=Covered Wagon Headed West - 1936
TTITLE10=Midnight, The Unconquered Outlaw - 1936
TTITLE11=The Fate Of Old Strawberry Road - 1936
TTITLE12=The Cowboy's Wedding In May - 1936
TTITLE13=Sweetheart Of My Childhood Days - 1936
TTITLE14=Ridin' A Maverick - 1936
TTITLE15=There'll Be No Blues Up Yonder - 1936
TTITLE16=Goodbye Little Pal Of My Dreams - 1936
TTITLE17=I Loved Her Till She Done Me Wrong - 1936
TTITLE18=Under The Light Of The Texas Moon - 1936
TTITLE19=I'm Still Waiting For You - 1936
TTITLE20=Longing For My Mississippi Home - 1936
TTITLE21=Old Alberta Plains - 1936
TTITLE22=The Cowboy's Heavinly Dream - 1936
TTITLE23=My Old Montana Home (My Old Montana Blues) - 1936
TTITLE24=Why Did I Ever Start Roaming/Roaming My Whole Life Away - 193
TTITLE24=6
EXTD=
EXTT0=
EXTT1=
EXTT2=
EXTT3=
EXTT4=
EXTT5=
EXTT6=
EXTT7=
EXTT8=
EXTT9=
EXTT10=
EXTT11=
EXTT12=
EXTT13=
EXTT14=
EXTT15=
EXTT16=
EXTT17=
EXTT18=
EXTT19=
EXTT20=
EXTT21=
EXTT22=
EXTT23=
EXTT24=
PLAYORDER=
